<svg width="40" height="40" viewBox="0 0 40 40" fill="none" xmlns="http://www.w3.org/2000/svg">
<path d="M40 6.6087C40 4.86957 39.3333 3.33333 38 2C36.6667 0.666667 35.1304 0 33.3913 0H6.6087C4.86957 0 3.33333 0.666667 2 2C0.666667 3.33333 0 4.86957 0 6.6087V33.3913C0 35.1304 0.666667 36.6667 2 38C3.33333 39.3333 4.86957 40 6.6087 40H20V24.8696H15.1304V18.2609H20V15.6522C20 13.3913 20.7391 11.4058 22.2174 9.69565C23.6957 7.98551 25.4493 7.13043 27.4783 7.13043H32.8696V13.7391H27.4783C27.1884 13.7391 26.913 13.913 26.6522 14.2609C26.3913 14.6087 26.2609 15.0435 26.2609 15.5652V18.2609H32.8696V24.8696H26.2609V40H33.3913C35.1304 40 36.6667 39.3333 38 38C39.3333 36.6667 40 35.1304 40 33.3913V6.6087Z" fill="#243A5E"/>
</svg>
