<svg xmlns="http://www.w3.org/2000/svg" viewBox="0 0 443 361"><defs><style>.cls-1{isolation:isolate;}.cls-13,.cls-2{fill:#fff;}.cls-11,.cls-3{fill:#e5eefd;}.cls-4{opacity:0.7;}.cls-10,.cls-12,.cls-17,.cls-5,.cls-6,.cls-7,.cls-8,.cls-9{fill:none;}.cls-5{stroke:#fdd1be;}.cls-10,.cls-11,.cls-12,.cls-13,.cls-14,.cls-17,.cls-18,.cls-19,.cls-20,.cls-21,.cls-22,.cls-23,.cls-5,.cls-6,.cls-7,.cls-8,.cls-9{stroke-linecap:round;stroke-linejoin:round;stroke-width:2px;}.cls-6{stroke:#c9d7ed;}.cls-7{stroke:#fd8989;}.cls-8{stroke:#9fc3fd;}.cls-9{stroke:#d5befd;}.cls-10{stroke:#fedfd2;}.cls-11,.cls-12,.cls-13,.cls-14,.cls-17,.cls-19,.cls-20,.cls-21,.cls-22,.cls-23{stroke:#717791;}.cls-14{fill:#a3acd6;}.cls-15,.cls-18{fill:#b8d4ff;}.cls-16,.cls-19{fill:#717791;}.cls-17{opacity:0.3;}.cls-18{stroke:#96c0ff;}.cls-19{opacity:0.2;mix-blend-mode:multiply;}.cls-20{fill:#f2f6fc;}.cls-21{fill:#3dffd6;}.cls-22{fill:#9fc3fd;}.cls-23{fill:#a9ebc8;}</style></defs><g class="cls-1"><g id="Layer_2" data-name="Layer 2"><g id="compression"><g id="algorithms"><rect class="cls-2" width="443" height="361"/><rect class="cls-3" x="204.17" y="241.3" width="189.54" height="34.91" rx="17.45" transform="translate(693.29 230.34) rotate(135)"/><rect class="cls-3" x="39.61" y="199.27" width="58.82" height="34.91" rx="17.45" transform="translate(271.08 321.17) rotate(135)"/><path class="cls-3" d="M239.7,244.92l50-50a17.45,17.45,0,0,0,24.68,24.69l-50,50a17.45,17.45,0,0,0-24.68-24.69Z"/><path class="cls-3" d="M218.34,168.8,265.16,122a17.45,17.45,0,0,0,24.68,24.68L243,193.48a17.45,17.45,0,0,0-24.68-24.68Z"/><rect class="cls-3" x="168.35" y="160.33" width="228.09" height="34.91" rx="17.45" transform="translate(607.8 103.82) rotate(135)"/><rect class="cls-3" x="23.92" y="172.69" width="297.86" height="34.91" rx="17.45" transform="translate(429.53 202.37) rotate(135)"/><rect class="cls-3" x="81.01" y="108.75" width="132.49" height="34.91" rx="17.45" transform="translate(340.61 111.32) rotate(135)"/><rect class="cls-3" x="209.34" y="28.91" width="35.49" height="34.91" rx="17.45" transform="translate(420.45 -81.42) rotate(135)"/><rect class="cls-3" x="156.42" y="267.4" width="35.49" height="34.91" rx="17.45" transform="translate(498.74 363.12) rotate(135)"/><g class="cls-4"><line class="cls-5" x1="373" y1="141.88" x2="365.94" y2="146.12"/><line class="cls-5" x1="371.58" y1="147.53" x2="367.35" y2="140.47"/></g><circle class="cls-6" cx="363.52" cy="61.32" r="2.75"/><circle class="cls-7" cx="412.72" cy="116.46" r="3.09"/><circle class="cls-7" cx="354.73" cy="253.92" r="3.09"/><g class="cls-4"><line class="cls-5" x1="225.12" y1="82.91" x2="225.12" y2="97.35"/><line class="cls-5" x1="232.34" y1="90.13" x2="217.89" y2="90.13"/></g><rect class="cls-8" x="204.79" y="33.61" width="7.46" height="7.46" transform="translate(227.44 248.32) rotate(-105.28)"/><circle class="cls-9" cx="247.68" cy="218.81" r="4.69"/><path class="cls-7" d="M372.8,224.57c3.89,1,6.73-1.82,5.7-5.7l-.4-1.5c-1-3.88,1.82-6.73,5.7-5.7l1.5.4c3.88,1,6.73-1.81,5.7-5.7l-.4-1.5c-1-3.88,1.81-6.73,5.7-5.7l1.5.4c2.94.78,5.28-.66,5.8-3.08"/><path class="cls-7" d="M296.86,59.34c2.86.76,5-1.33,4.2-4.2l-.29-1.1c-.76-2.86,1.33-5,4.2-4.2l1.1.29c2.86.76,5-1.34,4.2-4.2L310,44.82c-.76-2.86,1.34-5,4.2-4.2l1.11.3c2.16.57,3.89-.49,4.27-2.28"/><path class="cls-9" d="M132.58,156.45c-.6,4,2.53,6.5,6.28,5.06l1.44-.55c3.76-1.44,6.89,1.08,6.28,5.06l-.24,1.53c-.6,4,2.53,6.49,6.28,5l1.45-.55c3.75-1.44,6.88,1.08,6.27,5.06l-.23,1.53c-.46,3,1.21,5.18,3.68,5.44"/><path class="cls-8" d="M377.48,99.84a2.71,2.71,0,0,0-2.93,4l.38.87a2.7,2.7,0,0,1-2.93,4l-.94-.1a2.71,2.71,0,0,0-2.94,4l.38.87a2.7,2.7,0,0,1-2.93,4l-.94-.1a2.68,2.68,0,0,0-3.24,2.39"/><path class="cls-10" d="M263.91,143.79c-2.85-.31-4.54,2-3.41,4.62l.44,1c1.14,2.63-.56,4.93-3.4,4.62l-1.1-.12c-2.84-.32-4.54,2-3.4,4.61l.44,1c1.13,2.62-.56,4.92-3.41,4.61L249,164c-2.15-.23-3.65,1-3.76,2.79"/><g class="cls-4"><line class="cls-5" x1="120.21" y1="280.27" x2="116.7" y2="274.41"/><line class="cls-5" x1="115.52" y1="279.1" x2="121.38" y2="275.58"/></g><circle class="cls-6" cx="187.09" cy="272.4" r="2.28"/><circle class="cls-7" cx="141.31" cy="313.25" r="2.56"/><circle class="cls-7" cx="27.19" cy="265.1" r="2.56"/><g class="cls-4"><line class="cls-5" x1="169.17" y1="157.5" x2="157.18" y2="157.5"/><line class="cls-5" x1="163.17" y1="163.49" x2="163.17" y2="151.5"/></g><rect class="cls-8" x="203.91" y="140.62" width="6.19" height="6.19" transform="translate(-30.55 59.62) rotate(-15.28)"/><circle class="cls-9" cx="56.34" cy="176.23" r="3.9"/><path class="cls-7" d="M51.57,280.11c-.86,3.22,1.5,5.58,4.73,4.73l1.24-.33c3.22-.86,5.59,1.5,4.73,4.73l-.33,1.24c-.85,3.23,1.51,5.59,4.73,4.74l1.25-.33c3.22-.86,5.58,1.5,4.73,4.73l-.33,1.24c-.65,2.44.54,4.39,2.56,4.82"/><path class="cls-7" d="M188.74,217.06a2.7,2.7,0,0,0,3.48,3.49l.92-.25a2.71,2.71,0,0,1,3.49,3.49l-.25.92a2.71,2.71,0,0,0,3.49,3.49l.92-.25a2.71,2.71,0,0,1,3.49,3.49l-.25.92a2.68,2.68,0,0,0,1.89,3.55"/><path class="cls-9" d="M108.11,80.68c-3.29-.51-5.39,2.09-4.19,5.21l.45,1.2c1.2,3.11-.89,5.71-4.19,5.21l-1.27-.2c-3.3-.5-5.4,2.1-4.2,5.21l.46,1.2c1.19,3.12-.9,5.72-4.2,5.21l-1.28-.19c-2.49-.38-4.3,1-4.51,3.06"/><path class="cls-8" d="M155.12,284a2.25,2.25,0,0,0-3.3-2.43l-.72.31a2.25,2.25,0,0,1-3.3-2.43l.09-.78a2.25,2.25,0,0,0-3.3-2.43l-.72.31a2.25,2.25,0,0,1-3.3-2.43l.08-.79a2.21,2.21,0,0,0-2-2.68"/><path class="cls-10" d="M118.62,189.7a2.6,2.6,0,0,0-3.82-2.82l-.84.36a2.61,2.61,0,0,1-3.83-2.83l.1-.9a2.61,2.61,0,0,0-3.83-2.83l-.84.37a2.61,2.61,0,0,1-3.83-2.83l.1-.91a2.58,2.58,0,0,0-2.31-3.12"/><line class="cls-11" x1="375.67" y1="310.77" x2="382.06" y2="310.77"/><line class="cls-11" x1="261.4" y1="310.77" x2="370.97" y2="310.77"/><line class="cls-11" x1="234.25" y1="310.77" x2="249.29" y2="310.77"/><line class="cls-11" x1="84.01" y1="310.77" x2="205.84" y2="310.77"/><line class="cls-11" x1="76.95" y1="310.77" x2="77.89" y2="310.77"/><line class="cls-11" x1="65.46" y1="310.77" x2="70.11" y2="310.77"/><line class="cls-11" x1="193.31" y1="338.04" x2="282.87" y2="338.04"/><line class="cls-11" x1="156.46" y1="338.04" x2="179.41" y2="338.04"/><g id="iMac"><polyline class="cls-11" points="271.19 282.23 271.19 302.04 227.08 302.04 227.08 282.54"/><path class="cls-11" d="M114.67,199v77.17a6.09,6.09,0,0,0,6.1,6.09h256a6.09,6.09,0,0,0,6.09-6.09V105.7a8.4,8.4,0,0,0-8.4-8.4H122.71a8,8,0,0,0-8,8v35.48"/><circle class="cls-12" cx="248.62" cy="102.67" r="2.25"/><line class="cls-11" x1="377.05" y1="252.87" x2="361.82" y2="252.87"/><path class="cls-12" d="M353.83,252.87H114.67V104.77a7.62,7.62,0,0,1,7.77-7.47H375a7.62,7.62,0,0,1,7.77,7.47v148.1"/><polyline class="cls-13" points="323.41 107.98 372.09 107.96 372.13 242.13 125.41 242.22 125.75 108.05 316.82 107.98"/></g><polygon class="cls-14" points="284.1 310.82 214.17 310.82 227.08 302.04 271.19 302.04 284.1 310.82"/><rect class="cls-2" x="125.83" y="107.98" width="223.09" height="134.21"/><polygon class="cls-15" points="371.87 126.85 126.28 126.85 125.83 107.98 372.4 107.98 371.87 126.85"/><rect class="cls-12" x="125.83" y="107.98" width="246.31" height="134.21"/><line class="cls-13" x1="371.87" y1="126.8" x2="126.28" y2="126.8"/><circle class="cls-16" cx="135.71" cy="117.4" r="2.3"/><circle class="cls-16" cx="143.47" cy="117.4" r="2.3"/><circle class="cls-16" cx="151.23" cy="117.4" r="2.3"/><line class="cls-17" x1="174.09" y1="171.91" x2="205.37" y2="171.91"/><line class="cls-17" x1="243.75" y1="171.91" x2="328.19" y2="171.91"/><line class="cls-18" x1="216.04" y1="171.91" x2="236.58" y2="171.91"/><line class="cls-17" x1="148.62" y1="171.91" x2="161.49" y2="171.91"/><line class="cls-18" x1="192.74" y1="187.11" x2="211.59" y2="187.11"/><line class="cls-17" x1="222" y1="187.11" x2="318.35" y2="187.11"/><line class="cls-17" x1="148.62" y1="187.11" x2="180.14" y2="187.11"/><line class="cls-12" x1="192.74" y1="202.32" x2="236.45" y2="202.32"/><line class="cls-17" x1="148.63" y1="202.32" x2="180.15" y2="202.32"/><line class="cls-12" x1="219.67" y1="217.52" x2="304.11" y2="217.52"/><line class="cls-17" x1="183.42" y1="217.52" x2="207.49" y2="217.52"/><line class="cls-18" x1="148.63" y1="217.52" x2="168.09" y2="217.52"/><line class="cls-12" x1="148.55" y1="148.97" x2="237.16" y2="148.97"/><path class="cls-19" d="M267.32,105.79l-8.49-8.49H184.34v89.49a4,4,0,0,0,3.82,4h20.08a3.38,3.38,0,0,0-2.61,5.54l9,10.84v33.43H208.5a2.4,2.4,0,0,0-2.21,1.48l-2.86,7a11.84,11.84,0,0,1-11,7.35H160.1A25.13,25.13,0,0,1,135,231.25V97.3H122.71a8,8,0,0,0-8,8v168a50.71,50.71,0,0,0,31.87,11.26h68.05v26.1h-.24l-.18.13h17.27v-.13h-4.37v-26.1h0v-2l4.33,0a2.85,2.85,0,0,0,0-.29V243a2.39,2.39,0,0,0-2.39-2.39h-2V207.15l9-10.84a3.39,3.39,0,0,0-2.61-5.54h31a4,4,0,0,0,4-4V108.51A3.85,3.85,0,0,0,267.32,105.79Z"/><rect class="cls-12" x="185.48" y="207.15" width="12.48" height="130.9"/><line class="cls-12" x1="185.48" y1="213.94" x2="197.96" y2="213.94"/><line class="cls-12" x1="185.48" y1="220.96" x2="197.96" y2="220.96"/><line class="cls-12" x1="185.48" y1="227.98" x2="197.96" y2="227.98"/><line class="cls-12" x1="185.48" y1="235.36" x2="197.96" y2="235.36"/><line class="cls-12" x1="185.48" y1="242.38" x2="197.96" y2="242.38"/><line class="cls-12" x1="185.48" y1="249.4" x2="197.96" y2="249.4"/><line class="cls-12" x1="185.48" y1="256.41" x2="197.96" y2="256.41"/><line class="cls-12" x1="185.48" y1="263.43" x2="197.96" y2="263.43"/><line class="cls-12" x1="185.48" y1="270.45" x2="197.96" y2="270.45"/><line class="cls-12" x1="185.48" y1="277.47" x2="197.96" y2="277.47"/><line class="cls-12" x1="185.48" y1="284.49" x2="197.96" y2="284.49"/><line class="cls-12" x1="185.48" y1="291.51" x2="197.96" y2="291.51"/><line class="cls-12" x1="185.48" y1="298.53" x2="197.96" y2="298.53"/><line class="cls-12" x1="185.48" y1="305.55" x2="197.96" y2="305.55"/><path class="cls-12" d="M204.31,190.77H179.13a3.39,3.39,0,0,0-2.61,5.54l9,10.84H198l9-10.84A3.39,3.39,0,0,0,204.31,190.77Z"/><rect class="cls-11" x="181.11" y="310.69" width="21.23" height="22.02"/><rect class="cls-11" x="146.77" y="317.1" width="34.34" height="9.2"/><rect class="cls-11" x="123.28" y="312.34" width="23.48" height="18.72" rx="4.25"/><rect class="cls-11" x="202.33" y="317.1" width="34.34" height="9.2" transform="translate(439.01 643.4) rotate(180)"/><rect class="cls-11" x="236.68" y="312.34" width="23.48" height="18.72" rx="4.25" transform="translate(496.83 643.4) rotate(180)"/><path class="cls-11" d="M105.86,91A25.13,25.13,0,0,1,131,65.92h32.37a11.84,11.84,0,0,1,11,7.34l2.86,7a2.39,2.39,0,0,0,2.21,1.48h20.55a2.38,2.38,0,0,0,2.39-2.38V40.1a2.39,2.39,0,0,0-2.39-2.39H117.43A50.77,50.77,0,0,0,66.66,88.48V233.81a50.78,50.78,0,0,0,50.77,50.78h82.51a2.39,2.39,0,0,0,2.39-2.39V243a2.39,2.39,0,0,0-2.39-2.39H179.39a2.41,2.41,0,0,0-2.21,1.48l-2.86,7a11.83,11.83,0,0,1-11,7.35H131a25.13,25.13,0,0,1-25.13-25.13Z"/><rect class="cls-20" x="75.87" y="91.52" width="20.78" height="141.58" rx="10.39"/><line class="cls-12" x1="195.9" y1="161.53" x2="217.58" y2="139.85"/><path class="cls-11" d="M235.36,190.77H159.21a4,4,0,0,1-4-4V85.89a4,4,0,0,1,4-4h53.53A3.85,3.85,0,0,1,215.46,83l22.75,22.75a3.85,3.85,0,0,1,1.13,2.72v78.28A4,4,0,0,1,235.36,190.77Z"/><path class="cls-21" d="M182.59,154.81a11.55,11.55,0,0,0-16.32,0l-11,11v20.94a4,4,0,0,0,4,4h7.67l22.3-29.7Z"/><path class="cls-22" d="M158.19,190.15l.89.62h76.28a4,4,0,0,0,4-4V157.68l-16.08-16.11a11.53,11.53,0,0,0-16.32,0Z"/><circle class="cls-23" cx="178.21" cy="112.77" r="9.65"/><rect class="cls-20" x="130.09" y="261.97" width="33.85" height="16.3" rx="8.15"/><rect class="cls-20" x="130.09" y="43.28" width="33.85" height="16.3" rx="8.15"/></g></g></g></g></svg>